<svg width="30" height="30" viewBox="0 0 30 30" fill="none" xmlns="http://www.w3.org/2000/svg">
<path d="M20.0013 21.3208L22.5846 18.7365C22.9325 18.3927 23.3727 18.1574 23.8518 18.0591C24.3308 17.9608 24.8281 18.0037 25.2832 18.1827L28.4316 19.4402C28.8915 19.627 29.2859 19.9458 29.565 20.3564C29.8441 20.767 29.9955 21.2511 30 21.7477V27.5163C29.9973 27.8541 29.9263 28.1878 29.7913 28.4974C29.6563 28.8071 29.4601 29.0861 29.2144 29.3179C28.9688 29.5496 28.6788 29.7293 28.3619 29.8459C28.045 29.9626 27.7078 30.0139 27.3706 29.9968C5.3088 28.6238 0.857235 9.93358 0.0153584 2.78051C-0.023722 2.42925 0.0119848 2.07368 0.12013 1.73722C0.228275 1.40075 0.406406 1.091 0.642807 0.828345C0.879207 0.565693 1.16852 0.356091 1.49171 0.213328C1.8149 0.0705658 2.16464 -0.00212188 2.51792 4.71514e-05H8.08815C8.58521 0.00151905 9.07047 0.151724 9.4815 0.431342C9.89254 0.71096 10.2106 1.1072 10.3947 1.56911L11.6517 4.71876C11.8365 5.17226 11.8837 5.67017 11.7873 6.15031C11.6909 6.63046 11.4552 7.07154 11.1097 7.41847L8.52638 10.0028C8.52638 10.0028 10.0141 20.0748 20.0013 21.3208Z" fill="#6AAC43"/>
</svg>
