<svg width="42" height="18" viewBox="0 0 42 18" fill="none" xmlns="http://www.w3.org/2000/svg">
<path d="M12.9645 9.37153L13.104 13.0229C13.1196 13.5118 12.993 13.9946 12.7394 14.4128C12.4859 14.831 12.1164 15.1665 11.6758 15.3786L8.6133 16.833C8.16369 17.0434 7.6618 17.1159 7.1709 17.0415C6.68001 16.9671 6.22206 16.749 5.85479 16.4148L1.62385 12.4936C1.37792 12.2621 1.18138 11.9831 1.04606 11.6737C0.910747 11.3642 0.839449 11.0305 0.836466 10.6928C0.83348 10.3551 0.898868 10.0203 1.02869 9.70859C1.15852 9.39687 1.3501 9.11467 1.5919 8.87898C17.5954 -6.36882 34.3296 3.07095 40.1482 7.31579C40.4324 7.5259 40.6689 7.79378 40.8422 8.10181C41.0155 8.40985 41.1216 8.75105 41.1535 9.10297C41.1855 9.4549 41.1425 9.80957 41.0275 10.1437C40.9126 10.4777 40.7281 10.7837 40.4864 11.0413L36.7 15.1267C36.3611 15.4903 35.9211 15.7441 35.4366 15.8555C34.9521 15.9669 34.4453 15.9308 33.9814 15.7519L30.8168 14.5329C30.3586 14.3601 29.9613 14.0563 29.6747 13.6592C29.3881 13.2621 29.2247 12.7894 29.2052 12.3002L29.0657 8.64878C29.0657 8.64878 20.6672 2.89348 12.9645 9.37153Z" fill="#FF0000"/>
</svg>
