<svg width="11" height="15" viewBox="0 0 11 15" fill="none" xmlns="http://www.w3.org/2000/svg">
<path d="M5.5 7.125C4.97904 7.125 4.47942 6.92746 4.11104 6.57583C3.74267 6.22419 3.53571 5.74728 3.53571 5.25C3.53571 4.75272 3.74267 4.27581 4.11104 3.92417C4.47942 3.57254 4.97904 3.375 5.5 3.375C6.02096 3.375 6.52058 3.57254 6.88896 3.92417C7.25733 4.27581 7.46429 4.75272 7.46429 5.25C7.46429 5.49623 7.41348 5.74005 7.31476 5.96753C7.21605 6.19502 7.07136 6.40172 6.88896 6.57583C6.70656 6.74994 6.49002 6.88805 6.2517 6.98227C6.01338 7.0765 5.75795 7.125 5.5 7.125ZM5.5 0C4.04131 0 2.64236 0.553123 1.61091 1.53769C0.579463 2.52226 0 3.85761 0 5.25C0 9.1875 5.5 15 5.5 15C5.5 15 11 9.1875 11 5.25C11 3.85761 10.4205 2.52226 9.38909 1.53769C8.35764 0.553123 6.95869 0 5.5 0Z" fill="black"/>
</svg>
