<svg width="137" height="22" viewBox="0 0 137 22" fill="none" xmlns="http://www.w3.org/2000/svg">
<path d="M0.237183 21.5V1.13636H7.49571C9.07999 1.13636 10.3925 1.42471 11.4332 2.00141C12.4739 2.57812 13.2528 3.36694 13.7699 4.36789C14.2869 5.36221 14.5454 6.48247 14.5454 7.72869C14.5454 8.98153 14.2836 10.1084 13.7599 11.1094C13.2429 12.1037 12.4607 12.8925 11.4133 13.4758C10.3726 14.0525 9.06341 14.3409 7.48576 14.3409H2.49429V11.7358H7.20735C8.2083 11.7358 9.02033 11.5634 9.64343 11.2187C10.2665 10.8674 10.7239 10.3901 11.0156 9.78692C11.3073 9.1837 11.4531 8.49762 11.4531 7.72869C11.4531 6.95975 11.3073 6.27698 11.0156 5.68039C10.7239 5.0838 10.2632 4.61647 9.63349 4.2784C9.01038 3.94033 8.18841 3.7713 7.16758 3.7713H3.30963V21.5H0.237183Z" fill="#202124"/>
<path d="M17.9087 21.5V6.22726H20.8817V21.5H17.9087ZM19.4101 3.87073C18.8931 3.87073 18.4489 3.69838 18.0777 3.35368C17.7132 3.00236 17.5309 2.58475 17.5309 2.10084C17.5309 1.61031 17.7132 1.1927 18.0777 0.848002C18.4489 0.496677 18.8931 0.321014 19.4101 0.321014C19.9272 0.321014 20.368 0.496677 20.7326 0.848002C21.1038 1.1927 21.2894 1.61031 21.2894 2.10084C21.2894 2.58475 21.1038 3.00236 20.7326 3.35368C20.368 3.69838 19.9272 3.87073 19.4101 3.87073Z" fill="#202124"/>
<path d="M24.5632 21.5V19.4616L32.8359 8.9517V8.81249H24.8316V6.22726H36.5447V8.39488L28.5902 18.7756V18.9148H36.8231V21.5H24.5632Z" fill="#202124"/>
<path d="M40.0124 21.5V19.4616L48.2851 8.9517V8.81249H40.2809V6.22726H51.9939V8.39488L44.0394 18.7756V18.9148H52.2723V21.5H40.0124Z" fill="#202124"/>
<path d="M60.2244 21.8381C59.2566 21.8381 58.3816 21.6591 57.5994 21.3011C56.8172 20.9365 56.1974 20.4096 55.74 19.7202C55.2893 19.0308 55.0639 18.1856 55.0639 17.1847C55.0639 16.3229 55.2296 15.6136 55.561 15.0568C55.8925 14.5 56.3399 14.0592 56.9034 13.7344C57.4668 13.4096 58.0966 13.1643 58.7926 12.9986C59.4886 12.8329 60.1979 12.7069 60.9204 12.6207C61.8352 12.5147 62.5776 12.4285 63.1477 12.3622C63.7178 12.2893 64.1321 12.1733 64.3906 12.0142C64.6491 11.8551 64.7784 11.5966 64.7784 11.2386V11.169C64.7784 10.3007 64.5331 9.62783 64.0426 9.15056C63.5587 8.67329 62.8361 8.43465 61.875 8.43465C60.874 8.43465 60.0852 8.65672 59.5085 9.10084C58.9384 9.53834 58.544 10.0256 58.3252 10.5625L55.5312 9.92613C55.8627 8.9981 56.3466 8.24905 56.9829 7.67897C57.6259 7.10226 58.365 6.68465 59.2002 6.42613C60.0355 6.16098 60.9138 6.0284 61.8352 6.0284C62.445 6.0284 63.0913 6.10132 63.7741 6.24715C64.4635 6.38636 65.1065 6.64488 65.7031 7.02272C66.3063 7.40056 66.8002 7.94081 67.1846 8.64346C67.5691 9.33948 67.7613 10.2443 67.7613 11.3579V21.5H64.8579V19.4119H64.7386C64.5464 19.7964 64.258 20.1742 63.8735 20.5454C63.4891 20.9167 62.9952 21.2249 62.392 21.4702C61.7888 21.7154 61.0663 21.8381 60.2244 21.8381ZM60.8707 19.4517C61.6927 19.4517 62.3953 19.2893 62.9787 18.9645C63.5686 18.6397 64.0161 18.2154 64.321 17.6918C64.6325 17.1615 64.7883 16.5947 64.7883 15.9915V14.0227C64.6823 14.1288 64.4768 14.2282 64.1718 14.321C63.8735 14.4072 63.5322 14.4834 63.1477 14.5497C62.7632 14.6094 62.3887 14.6657 62.0241 14.7187C61.6595 14.7651 61.3546 14.8049 61.1093 14.8381C60.5326 14.911 60.0056 15.0336 59.5284 15.206C59.0577 15.3783 58.6799 15.6269 58.3949 15.9517C58.1164 16.2699 57.9772 16.6941 57.9772 17.2244C57.9772 17.9602 58.249 18.517 58.7926 18.8949C59.3361 19.2661 60.0288 19.4517 60.8707 19.4517Z" fill="#202124"/>
<path d="M79.3675 21.5V1.13636H93.0891V4.68607H83.6729V9.53834H92.3831V13.0881H83.6729V17.9503H93.1289V21.5H79.3675Z" fill="#202124"/>
<path d="M100.788 21.7883C99.8132 21.7883 98.9448 21.6193 98.1825 21.2812C97.4202 20.9365 96.817 20.4294 96.3728 19.7599C95.9353 19.0838 95.7166 18.2419 95.7166 17.2344C95.7166 16.3859 95.8724 15.6733 96.1839 15.0966C96.4955 14.5199 96.9197 14.0559 97.4566 13.7045C97.9936 13.3532 98.6034 13.0881 99.2862 12.9091C99.9756 12.7301 100.698 12.6042 101.454 12.5312C102.342 12.4384 103.058 12.3523 103.602 12.2727C104.145 12.1865 104.54 12.0606 104.785 11.8949C105.03 11.7292 105.153 11.4839 105.153 11.1591V11.0994C105.153 10.4697 104.954 9.98247 104.556 9.63778C104.165 9.29308 103.608 9.12073 102.886 9.12073C102.123 9.12073 101.517 9.28976 101.066 9.62783C100.615 9.95927 100.317 10.3769 100.171 10.8807L96.2535 10.5625C96.4524 9.63446 96.8435 8.83238 97.4268 8.15624C98.0102 7.47348 98.7625 6.9498 99.6839 6.58522C100.612 6.21401 101.686 6.0284 102.906 6.0284C103.754 6.0284 104.566 6.12783 105.342 6.3267C106.124 6.52556 106.816 6.8338 107.42 7.25141C108.03 7.66903 108.51 8.20596 108.861 8.86221C109.213 9.51183 109.388 10.2907 109.388 11.1989V21.5H105.371V19.3821H105.252C105.007 19.8594 104.679 20.2803 104.268 20.6449C103.857 21.0028 103.363 21.2846 102.786 21.49C102.209 21.6889 101.543 21.7883 100.788 21.7883ZM102.001 18.865C102.624 18.865 103.174 18.7424 103.651 18.4972C104.129 18.2453 104.503 17.9072 104.775 17.4829C105.047 17.0587 105.182 16.5781 105.182 16.0412V14.4204C105.05 14.5066 104.868 14.5862 104.636 14.6591C104.41 14.7254 104.155 14.7883 103.87 14.848C103.585 14.901 103.3 14.9507 103.015 14.9972C102.73 15.0369 102.471 15.0734 102.239 15.1065C101.742 15.1794 101.308 15.2954 100.937 15.4545C100.566 15.6136 100.277 15.8291 100.072 16.1008C99.8662 16.366 99.7635 16.6974 99.7635 17.0952C99.7635 17.6719 99.9723 18.1127 100.39 18.4176C100.814 18.7159 101.351 18.865 102.001 18.865Z" fill="#202124"/>
<path d="M120.798 6.22726V9.40908H111.601V6.22726H120.798ZM113.689 2.56817H117.925V16.8068C117.925 17.1979 117.984 17.5028 118.104 17.7216C118.223 17.9337 118.389 18.0829 118.601 18.169C118.82 18.2552 119.071 18.2983 119.357 18.2983C119.555 18.2983 119.754 18.2817 119.953 18.2486C120.152 18.2088 120.304 18.179 120.41 18.1591L121.077 21.3111C120.865 21.3774 120.566 21.4536 120.182 21.5398C119.797 21.6326 119.33 21.6889 118.78 21.7088C117.759 21.7486 116.864 21.6127 116.095 21.3011C115.333 20.9896 114.74 20.5057 114.315 19.8494C113.891 19.1932 113.682 18.3646 113.689 17.3636V2.56817Z" fill="#202124"/>
<path d="M136.073 10.5824L132.196 10.821C132.129 10.4896 131.987 10.1913 131.768 9.92613C131.549 9.65435 131.261 9.43891 130.903 9.27982C130.552 9.1141 130.131 9.03124 129.64 9.03124C128.984 9.03124 128.43 9.17045 127.98 9.44886C127.529 9.72064 127.304 10.0852 127.304 10.5426C127.304 10.9072 127.449 11.2154 127.741 11.4673C128.033 11.7192 128.533 11.9214 129.243 12.0739L132.007 12.6307C133.492 12.9356 134.599 13.4261 135.328 14.1023C136.057 14.7784 136.421 15.6667 136.421 16.767C136.421 17.768 136.127 18.6463 135.537 19.402C134.953 20.1577 134.151 20.7476 133.13 21.1719C132.116 21.5895 130.946 21.7983 129.62 21.7983C127.599 21.7983 125.988 21.3774 124.788 20.5355C123.595 19.687 122.895 18.5336 122.69 17.0753L126.856 16.8565C126.982 17.473 127.287 17.9436 127.771 18.2685C128.255 18.5866 128.875 18.7457 129.63 18.7457C130.373 18.7457 130.969 18.6032 131.42 18.3182C131.877 18.0265 132.109 17.652 132.116 17.1946C132.109 16.8101 131.947 16.4953 131.629 16.25C131.311 15.9981 130.82 15.8059 130.157 15.6733L127.512 15.1463C126.021 14.848 124.911 14.331 124.181 13.5952C123.459 12.8594 123.098 11.9214 123.098 10.7812C123.098 9.80018 123.363 8.95501 123.893 8.24573C124.43 7.53645 125.182 6.98958 126.15 6.60511C127.125 6.22064 128.265 6.0284 129.571 6.0284C131.5 6.0284 133.018 6.43607 134.125 7.25141C135.238 8.06675 135.888 9.17708 136.073 10.5824Z" fill="#202124"/>
</svg>
