<svg width="137" height="23" viewBox="0 0 137 23" fill="none" xmlns="http://www.w3.org/2000/svg">
<path d="M0.237216 22V1.63636H7.49574C9.08002 1.63636 10.3925 1.92472 11.4332 2.50142C12.474 3.07812 13.2528 3.86695 13.7699 4.8679C14.2869 5.86222 14.5455 6.98248 14.5455 8.22869C14.5455 9.48153 14.2836 10.6084 13.7599 11.6094C13.2429 12.6037 12.4607 13.3925 11.4134 13.9759C10.3726 14.5526 9.06345 14.8409 7.4858 14.8409H2.49432V12.2358H7.20739C8.20833 12.2358 9.02036 12.0634 9.64347 11.7188C10.2666 11.3674 10.724 10.8902 11.0156 10.2869C11.3073 9.68371 11.4531 8.99763 11.4531 8.22869C11.4531 7.45975 11.3073 6.77699 11.0156 6.1804C10.724 5.58381 10.2633 5.11648 9.63352 4.77841C9.01042 4.44034 8.18845 4.27131 7.16761 4.27131H3.30966V22H0.237216ZM17.9087 22V6.72727H20.8817V22H17.9087ZM19.4102 4.37074C18.8931 4.37074 18.449 4.19839 18.0778 3.85369C17.7132 3.50237 17.5309 3.08475 17.5309 2.60085C17.5309 2.11032 17.7132 1.69271 18.0778 1.34801C18.449 0.996685 18.8931 0.821022 19.4102 0.821022C19.9272 0.821022 20.368 0.996685 20.7326 1.34801C21.1038 1.69271 21.2894 2.11032 21.2894 2.60085C21.2894 3.08475 21.1038 3.50237 20.7326 3.85369C20.368 4.19839 19.9272 4.37074 19.4102 4.37074ZM24.5632 22V19.9616L32.8359 9.4517V9.3125H24.8317V6.72727H36.5447V8.89489L28.5902 19.2756V19.4148H36.8232V22H24.5632ZM40.0124 22V19.9616L48.2852 9.4517V9.3125H40.2809V6.72727H51.994V8.89489L44.0394 19.2756V19.4148H52.2724V22H40.0124ZM60.2244 22.3381C59.2566 22.3381 58.3816 22.1591 57.5994 21.8011C56.8172 21.4366 56.1974 20.9096 55.7401 20.2202C55.2893 19.5308 55.0639 18.6856 55.0639 17.6847C55.0639 16.8229 55.2296 16.1136 55.5611 15.5568C55.8925 15 56.34 14.5592 56.9034 14.2344C57.4669 13.9096 58.0966 13.6643 58.7926 13.4986C59.4886 13.3329 60.1979 13.2069 60.9205 13.1207C61.8352 13.0147 62.5777 12.9285 63.1477 12.8622C63.7178 12.7893 64.1321 12.6733 64.3906 12.5142C64.6491 12.3551 64.7784 12.0966 64.7784 11.7386V11.669C64.7784 10.8007 64.5331 10.1278 64.0426 9.65057C63.5587 9.17329 62.8362 8.93466 61.875 8.93466C60.8741 8.93466 60.0852 9.15672 59.5085 9.60085C58.9384 10.0384 58.544 10.5256 58.3253 11.0625L55.5312 10.4261C55.8627 9.49811 56.3466 8.74905 56.983 8.17898C57.6259 7.60227 58.3651 7.18466 59.2003 6.92614C60.0355 6.66098 60.9138 6.52841 61.8352 6.52841C62.4451 6.52841 63.0914 6.60133 63.7741 6.74716C64.4635 6.88636 65.1065 7.14489 65.7031 7.52273C66.3063 7.90057 66.8002 8.44081 67.1847 9.14347C67.5691 9.83949 67.7614 10.7443 67.7614 11.858V22H64.858V19.9119H64.7386C64.5464 20.2964 64.258 20.6742 63.8736 21.0455C63.4891 21.4167 62.9953 21.7249 62.392 21.9702C61.7888 22.2154 61.0663 22.3381 60.2244 22.3381ZM60.8707 19.9517C61.6927 19.9517 62.3954 19.7893 62.9787 19.4645C63.5687 19.1397 64.0161 18.7154 64.321 18.1918C64.6326 17.6615 64.7884 17.0947 64.7884 16.4915V14.5227C64.6823 14.6288 64.4768 14.7282 64.1719 14.821C63.8736 14.9072 63.5322 14.9834 63.1477 15.0497C62.7633 15.1094 62.3887 15.1657 62.0241 15.2188C61.6596 15.2652 61.3546 15.3049 61.1094 15.3381C60.5327 15.411 60.0057 15.5336 59.5284 15.706C59.0578 15.8783 58.6799 16.1269 58.3949 16.4517C58.1165 16.7699 57.9773 17.1941 57.9773 17.7244C57.9773 18.4602 58.2491 19.017 58.7926 19.3949C59.3362 19.7661 60.0289 19.9517 60.8707 19.9517ZM79.3675 22V1.63636H93.0891V5.18608H83.6729V10.0384H92.3832V13.5881H83.6729V18.4503H93.1289V22H79.3675ZM100.788 22.2884C99.8132 22.2884 98.9448 22.1193 98.1825 21.7812C97.4202 21.4366 96.817 20.9295 96.3729 20.2599C95.9354 19.5838 95.7166 18.742 95.7166 17.7344C95.7166 16.8859 95.8724 16.1733 96.1839 15.5966C96.4955 15.0199 96.9197 14.5559 97.4567 14.2045C97.9936 13.8532 98.6035 13.5881 99.2862 13.4091C99.9756 13.2301 100.698 13.1042 101.454 13.0312C102.342 12.9384 103.058 12.8523 103.602 12.7727C104.145 12.6866 104.54 12.5606 104.785 12.3949C105.03 12.2292 105.153 11.9839 105.153 11.6591V11.5994C105.153 10.9697 104.954 10.4825 104.556 10.1378C104.165 9.79309 103.608 9.62074 102.886 9.62074C102.123 9.62074 101.517 9.78977 101.066 10.1278C100.615 10.4593 100.317 10.8769 100.171 11.3807L96.2536 11.0625C96.4524 10.1345 96.8435 9.33239 97.4268 8.65625C98.0102 7.97348 98.7625 7.44981 99.6839 7.08523C100.612 6.71401 101.686 6.52841 102.906 6.52841C103.754 6.52841 104.566 6.62784 105.342 6.8267C106.124 7.02557 106.817 7.33381 107.42 7.75142C108.03 8.16903 108.51 8.70597 108.862 9.36222C109.213 10.0118 109.388 10.7907 109.388 11.6989V22H105.371V19.8821H105.252C105.007 20.3594 104.679 20.7803 104.268 21.1449C103.857 21.5028 103.363 21.7846 102.786 21.9901C102.21 22.1889 101.543 22.2884 100.788 22.2884ZM102.001 19.3651C102.624 19.3651 103.174 19.2424 103.651 18.9972C104.129 18.7453 104.503 18.4072 104.775 17.983C105.047 17.5587 105.183 17.0781 105.183 16.5412V14.9205C105.05 15.0066 104.868 15.0862 104.636 15.1591C104.41 15.2254 104.155 15.2884 103.87 15.348C103.585 15.401 103.3 15.4508 103.015 15.4972C102.73 15.5369 102.471 15.5734 102.239 15.6065C101.742 15.6795 101.308 15.7955 100.937 15.9545C100.566 16.1136 100.277 16.3291 100.072 16.6009C99.8662 16.866 99.7635 17.1974 99.7635 17.5952C99.7635 18.1719 99.9723 18.6127 100.39 18.9176C100.814 19.2159 101.351 19.3651 102.001 19.3651ZM120.798 6.72727V9.90909H111.601V6.72727H120.798ZM113.689 3.06818H117.925V17.3068C117.925 17.6979 117.984 18.0028 118.104 18.2216C118.223 18.4337 118.389 18.5829 118.601 18.669C118.82 18.7552 119.071 18.7983 119.357 18.7983C119.555 18.7983 119.754 18.7817 119.953 18.7486C120.152 18.7088 120.304 18.679 120.411 18.6591L121.077 21.8111C120.865 21.8774 120.566 21.9536 120.182 22.0398C119.797 22.1326 119.33 22.1889 118.78 22.2088C117.759 22.2486 116.864 22.1127 116.095 21.8011C115.333 21.4896 114.74 21.0057 114.315 20.3494C113.891 19.6932 113.682 18.8646 113.689 17.8636V3.06818ZM136.074 11.0824L132.196 11.321C132.129 10.9896 131.987 10.6913 131.768 10.4261C131.549 10.1544 131.261 9.93892 130.903 9.77983C130.552 9.61411 130.131 9.53125 129.64 9.53125C128.984 9.53125 128.431 9.67045 127.98 9.94886C127.529 10.2206 127.304 10.5852 127.304 11.0426C127.304 11.4072 127.449 11.7154 127.741 11.9673C128.033 12.2192 128.533 12.4214 129.243 12.5739L132.007 13.1307C133.492 13.4356 134.599 13.9261 135.328 14.6023C136.057 15.2784 136.422 16.1667 136.422 17.267C136.422 18.268 136.127 19.1463 135.537 19.902C134.953 20.6577 134.151 21.2476 133.13 21.6719C132.116 22.0895 130.946 22.2983 129.62 22.2983C127.599 22.2983 125.988 21.8774 124.788 21.0355C123.595 20.187 122.895 19.0336 122.69 17.5753L126.856 17.3565C126.982 17.973 127.287 18.4437 127.771 18.7685C128.255 19.0866 128.875 19.2457 129.63 19.2457C130.373 19.2457 130.969 19.1032 131.42 18.8182C131.877 18.5265 132.109 18.152 132.116 17.6946C132.109 17.3101 131.947 16.9953 131.629 16.75C131.311 16.4981 130.82 16.3059 130.157 16.1733L127.512 15.6463C126.021 15.348 124.911 14.831 124.181 14.0952C123.459 13.3594 123.098 12.4214 123.098 11.2812C123.098 10.3002 123.363 9.45502 123.893 8.74574C124.43 8.03646 125.182 7.48958 126.15 7.10511C127.125 6.72064 128.265 6.52841 129.571 6.52841C131.5 6.52841 133.018 6.93608 134.125 7.75142C135.238 8.56676 135.888 9.67708 136.074 11.0824Z" fill="white"/>
</svg>
