<svg width="22" height="24" viewBox="0 0 22 24" fill="none" xmlns="http://www.w3.org/2000/svg">
<path d="M8.85501 13.878L7.87876 14.943C7.2298 14.1261 6.87333 13.0809 6.87501 12V6C6.87501 4.80653 7.3096 3.66193 8.08319 2.81802C8.85678 1.97411 9.90599 1.5 11 1.5C12.094 1.5 13.1432 1.97411 13.9168 2.81802C14.6904 3.66193 15.125 4.80653 15.125 6V7.0395L13.75 8.5395V6C13.75 5.20435 13.4603 4.44129 12.9445 3.87868C12.4288 3.31607 11.7294 3 11 3C10.2707 3 9.57119 3.31607 9.05546 3.87868C8.53974 4.44129 8.25001 5.20435 8.25001 6V12C8.25001 12.711 8.47688 13.365 8.85501 13.878ZM9.97151 14.7825C10.3889 14.9661 10.8413 15.0352 11.2888 14.9836C11.7364 14.932 12.1656 14.7614 12.5386 14.4867C12.9117 14.212 13.2172 13.8416 13.4284 13.4081C13.6396 12.9745 13.75 12.491 13.75 12V10.6605L15.125 9.1605V12C15.1253 12.7893 14.9352 13.5648 14.5739 14.2487C14.2126 14.9325 13.6928 15.5007 13.0666 15.8961C12.4404 16.2916 11.7299 16.5004 11.0063 16.5016C10.2828 16.5028 9.57168 16.2963 8.94438 15.903L9.97151 14.7825ZM6.76501 18.2805L7.75638 17.2005C8.52219 17.7248 9.40838 18.002 10.3125 18H11.6875C12.9639 18 14.1879 17.4469 15.0905 16.4623C15.993 15.4777 16.5 14.1424 16.5 12.75V12C16.5 11.8011 16.5724 11.6103 16.7014 11.4697C16.8303 11.329 17.0052 11.25 17.1875 11.25C17.3698 11.25 17.5447 11.329 17.6736 11.4697C17.8026 11.6103 17.875 11.8011 17.875 12V12.75C17.875 14.5402 17.2231 16.2571 16.0627 17.523C14.9023 18.7888 13.3285 19.5 11.6875 19.5V21H13.0625C13.2448 21 13.4197 21.079 13.5486 21.2197C13.6776 21.3603 13.75 21.5511 13.75 21.75C13.75 21.9489 13.6776 22.1397 13.5486 22.2803C13.4197 22.421 13.2448 22.5 13.0625 22.5H8.93751C8.75517 22.5 8.5803 22.421 8.45137 22.2803C8.32244 22.1397 8.25001 21.9489 8.25001 21.75C8.25001 21.5511 8.32244 21.3603 8.45137 21.2197C8.5803 21.079 8.75517 21 8.93751 21H10.3125V19.5C8.99251 19.5 7.76876 19.05 6.76501 18.2805ZM5.73101 17.2875C4.69555 16.0465 4.12273 14.4281 4.12501 12.75V12C4.12501 11.8011 4.19744 11.6103 4.32637 11.4697C4.4553 11.329 4.63017 11.25 4.81251 11.25C4.99484 11.25 5.16971 11.329 5.29864 11.4697C5.42757 11.6103 5.50001 11.8011 5.50001 12V12.75C5.50001 14.082 5.95513 15.3 6.70451 16.2255L5.73101 17.2875Z" fill="#545454"/>
<path d="M3.23827 20.1346C3.10916 20.2719 2.93575 20.3484 2.75542 20.3476C2.5751 20.3468 2.40228 20.2687 2.27423 20.1302C2.14618 19.9916 2.07314 19.8038 2.07086 19.6071C2.06857 19.4104 2.13722 19.2206 2.26202 19.0786L17.387 2.47206C17.5161 2.33472 17.6895 2.25822 17.8699 2.25904C18.0502 2.25986 18.223 2.33794 18.3511 2.47646C18.4791 2.61497 18.5521 2.80282 18.5544 2.99953C18.5567 3.19624 18.4881 3.38605 18.3633 3.52806L3.23827 20.1346Z" fill="#545454"/>
</svg>
