<svg width="9" height="19" viewBox="0 0 9 19" fill="none" xmlns="http://www.w3.org/2000/svg">
<path fill-rule="evenodd" clip-rule="evenodd" d="M1.90667 0.953333C1.90667 0.700494 1.80623 0.45801 1.62744 0.279225C1.44866 0.10044 1.20617 0 0.953334 0C0.700494 0 0.45801 0.10044 0.279225 0.279225C0.10044 0.45801 0 0.700494 0 0.953333V17.42C0 17.6728 0.10044 17.9153 0.279225 18.0941C0.45801 18.2729 0.700494 18.3733 0.953334 18.3733C1.20617 18.3733 1.44866 18.2729 1.62744 18.0941C1.80623 17.9153 1.90667 17.6728 1.90667 17.42V0.953333ZM8.84 0.953333C8.84 0.700494 8.73956 0.45801 8.56078 0.279225C8.38199 0.10044 8.13951 0 7.88667 0C7.63383 0 7.39134 0.10044 7.21256 0.279225C7.03377 0.45801 6.93333 0.700494 6.93333 0.953333V17.42C6.93333 17.6728 7.03377 17.9153 7.21256 18.0941C7.39134 18.2729 7.63383 18.3733 7.88667 18.3733C8.13951 18.3733 8.38199 18.2729 8.56078 18.0941C8.73956 17.9153 8.84 17.6728 8.84 17.42V0.953333Z" fill="#545454"/>
</svg>
