<svg width="16" height="18" viewBox="0 0 16 18" fill="none" xmlns="http://www.w3.org/2000/svg">
<path d="M0 2.20011C0 0.968281 1.02285 -0.0745594 2.31998 0.00418793C7.40222 0.312428 11.8593 1.99537 15.3507 5.27689C16.3416 6.20723 16.1461 7.72705 15.1187 8.50328L14.8399 8.71477L14.3862 8.21866L14.3782 8.21079C11.0228 4.81903 6.15994 2.82784 0.995419 2.82784H0V2.20011ZM0 3.95168V16.3116C0 17.6976 1.60684 18.4918 2.73712 17.6627L4.57482 16.315V16.3173C4.57482 16.6156 4.69522 16.9018 4.90955 17.1127C5.12387 17.3237 5.41456 17.4422 5.71766 17.4422C6.02076 17.4422 6.31145 17.3237 6.52578 17.1127C6.7401 16.9018 6.86051 16.6156 6.86051 16.3173V14.0651C6.86167 13.9224 6.91784 13.7856 7.01765 13.6822C7.11746 13.5787 7.25346 13.5165 7.39812 13.5081C7.54278 13.4997 7.68529 13.5456 7.79681 13.6367C7.90833 13.7278 7.98053 13.8572 7.99878 13.9987V14.6287C7.99878 14.9271 8.11919 15.2132 8.33352 15.4242C8.54784 15.6351 8.83853 15.7537 9.14163 15.7537C9.44473 15.7537 9.73542 15.6351 9.94975 15.4242C10.1641 15.2132 10.2845 14.9271 10.2845 14.6287V12.111C11.2273 11.4304 12.6685 10.3516 13.9302 9.40212L13.5519 8.98701C10.4216 5.82812 5.8628 3.95168 0.994276 3.95168H0ZM4.85481 7.03633C4.85474 7.14676 4.83257 7.25609 4.78957 7.35809C4.74656 7.46008 4.68358 7.55274 4.6042 7.63077C4.52482 7.70881 4.4306 7.77069 4.32692 7.81288C4.22325 7.85507 4.11215 7.87675 3.99996 7.87667C3.88778 7.8766 3.77671 7.85477 3.67309 7.81245C3.56947 7.77012 3.47534 7.70812 3.39606 7.62998C3.31679 7.55184 3.25393 7.4591 3.21107 7.35705C3.1682 7.25499 3.14618 7.14563 3.14626 7.0352C3.14626 6.81218 3.23626 6.59829 3.39647 6.44059C3.55668 6.28289 3.77397 6.19429 4.00053 6.19429C4.2271 6.19429 4.44439 6.28289 4.6046 6.44059C4.76481 6.59829 4.85481 6.81218 4.85481 7.0352V7.03633ZM8.25478 9.28625C8.25478 9.50927 8.16478 9.72316 8.00457 9.88086C7.84436 10.0386 7.62707 10.1272 7.4005 10.1272C7.17393 10.1272 6.95665 10.0386 6.79644 9.88086C6.63623 9.72316 6.54623 9.50927 6.54623 9.28625C6.54623 9.06323 6.63623 8.84934 6.79644 8.69164C6.95665 8.53394 7.17393 8.44534 7.4005 8.44534C7.62707 8.44534 7.84436 8.53394 8.00457 8.69164C8.16478 8.84934 8.25478 9.06323 8.25478 9.28625ZM4.86395 12.1009C4.86395 12.3251 4.77347 12.5402 4.6124 12.6987C4.45134 12.8572 4.23289 12.9463 4.00511 12.9463C3.77732 12.9463 3.55887 12.8572 3.39781 12.6987C3.23674 12.5402 3.14626 12.3251 3.14626 12.1009C3.14626 11.8767 3.23674 11.6617 3.39781 11.5031C3.55887 11.3446 3.77732 11.2555 4.00511 11.2555C4.23289 11.2555 4.45134 11.3446 4.6124 11.5031C4.77347 11.6617 4.86395 11.8767 4.86395 12.1009Z" fill="#6AAC43"/>
</svg>
