<svg width="24" height="22" viewBox="0 0 24 22" fill="none" xmlns="http://www.w3.org/2000/svg">
<g clip-path="url(#clip0_13_91)">
<path d="M11.1055 0.899411C10.8092 0.900257 10.4815 1.0221 10.1825 1.29541L4.90338 6.76918H0.923077C0.414462 6.76918 0 7.1491 0 7.61533V14.3846C0 14.8508 0.414462 15.2307 0.923077 15.2307H4.90431L10.1538 20.6783C11.0769 21.5244 12 21.0912 12 19.9379V1.92918C12 1.25987 11.6003 0.89518 11.1055 0.897718V0.899411ZM17.7978 2.59172C17.6015 2.62311 17.4216 2.7119 17.2849 2.84482C17.1481 2.97773 17.062 3.14764 17.0394 3.32913C17.0167 3.51063 17.0588 3.69396 17.1592 3.85174C17.2597 4.00952 17.4131 4.13327 17.5966 4.20449C18.9699 4.83735 20.1236 5.80836 20.9286 7.00864C21.7335 8.20892 22.1578 9.59101 22.1538 10.9999C22.1538 13.9818 20.3077 16.5423 17.5957 17.7954C17.4723 17.8348 17.3594 17.8977 17.2645 17.98C17.1696 18.0624 17.0948 18.1623 17.0452 18.2731C16.9955 18.3839 16.9721 18.5031 16.9765 18.6228C16.9808 18.7425 17.0129 18.86 17.0705 18.9675C17.128 19.075 17.2099 19.1701 17.3106 19.2465C17.4112 19.3228 17.5285 19.3787 17.6545 19.4105C17.7805 19.4422 17.9124 19.4491 18.0415 19.4306C18.1706 19.4121 18.2939 19.3687 18.4034 19.3033C21.72 17.7692 24 14.6283 24 10.9999C24 7.37164 21.7191 4.23072 18.4034 2.69664C18.2454 2.61582 18.065 2.57934 17.8846 2.59172C17.8557 2.59047 17.8268 2.59047 17.7978 2.59172ZM15.6055 5.86972C15.4068 5.8831 15.2181 5.95508 15.0677 6.07491C14.9172 6.19474 14.8131 6.35598 14.771 6.53453C14.7288 6.71308 14.7508 6.89934 14.8337 7.06548C14.9165 7.23162 15.0559 7.36871 15.2308 7.45626C16.6551 8.26772 17.5385 9.55303 17.5385 10.9999C17.5385 12.457 16.6412 13.7593 15.2022 14.5699C15.0891 14.6239 14.9895 14.6989 14.9096 14.79C14.8297 14.8811 14.7713 14.9864 14.738 15.0992C14.7047 15.2121 14.6973 15.33 14.7162 15.4456C14.7352 15.5612 14.78 15.6719 14.8479 15.7709C14.9159 15.8698 15.0054 15.9547 15.1109 16.0203C15.2165 16.086 15.3357 16.1308 15.4611 16.1521C15.5865 16.1734 15.7153 16.1706 15.8394 16.144C15.9636 16.1173 16.0804 16.0674 16.1825 15.9973C18.0932 14.9227 19.3846 13.095 19.3846 10.9999C19.3846 8.91756 18.1043 7.07972 16.2111 6.00256C16.0564 5.91199 15.8758 5.86574 15.6923 5.86972C15.6634 5.86847 15.6344 5.86847 15.6055 5.86972Z" fill="#545454"/>
</g>
<defs>
<clipPath id="clip0_13_91">
<rect width="24" height="22" fill="white"/>
</clipPath>
</defs>
</svg>
